<?xml version="1.0" encoding="UTF-8" standalone="no"?><!DOCTYPE svg PUBLIC "-//W3C//DTD SVG 1.1//EN" "http://www.w3.org/Graphics/SVG/1.1/DTD/svg11.dtd"><svg width="100%" height="100%" viewBox="0 0 200 200" version="1.1" xmlns="http://www.w3.org/2000/svg" xmlns:xlink="http://www.w3.org/1999/xlink" xml:space="preserve" xmlns:serif="http://www.serif.com/" style="fill-rule:evenodd;clip-rule:evenodd;stroke-linejoin:round;stroke-miterlimit:2;"><g id="Livello-1" serif:id="Livello 1"><path d="M200,-0l0,200l-99.666,-0l0,-200l99.666,-0Z" style="fill:#fff;"/><g id="g8158"><path id="rect6182" d="M131.104,-0l68.896,200l0,-200l-68.896,0Zm16.722,2.909l30.1,0l16.722,38.545l-18.06,0l-28.763,-38.545Zm-47.492,48.727l0,72l20.736,0l-20.736,-72Zm0,115.636l0,32.727l41.472,0l-8.696,-32.727l-32.776,0Z" style="fill:url(#_Linear1);fill-rule:nonzero;"/><path id="path6174" d="M100.334,-0l0,51.636l-20.067,72l20.067,0l0,43.636l-32.107,0l-8.696,32.727l-59.532,0l68.896,-200l31.438,0Z" style="fill:#a00000;fill-rule:nonzero;"/></g></g><defs><linearGradient id="_Linear1" x1="0" y1="0" x2="1" y2="0" gradientUnits="userSpaceOnUse" gradientTransform="matrix(0,196.010121,-180.276867,0,150.167327,31.240834)"><stop offset="0" style="stop-color:#000;stop-opacity:1"/><stop offset="1" style="stop-color:#000;stop-opacity:0"/></linearGradient></defs></svg>